<svg width="98" height="68" viewBox="0 0 98 68" fill="none" xmlns="http://www.w3.org/2000/svg">
<path d="M48.8023 33.2361V30.6353C48.8023 29.9456 48.5281 29.2842 48.0403 28.7965C47.5526 28.3089 46.8912 28.0346 46.2015 28.0346C45.5119 28.0346 44.8504 28.3088 44.3627 28.7965C43.8751 29.2842 43.6008 29.9456 43.6008 30.6353V33.2361C43.6008 34.6724 42.4364 35.8368 41 35.8368C39.5638 35.8367 38.3993 34.6723 38.3993 33.2361V17.6316C38.3993 16.9418 38.1251 16.2805 37.6374 15.7928C37.1496 15.3051 36.4882 15.0308 35.7985 15.0308C35.1089 15.0309 34.4474 15.3051 33.9597 15.7928C33.4721 16.2805 33.1978 16.9419 33.1978 17.6316V42.5622L35.0366 44.401C36.0523 45.4166 36.0523 47.0629 35.0366 48.0786C34.0209 49.0941 32.3746 49.0942 31.359 48.0786L26.8432 43.5629C26.3531 43.1295 25.7178 42.8954 25.0628 42.9101C24.3954 42.9254 23.7579 43.1983 23.285 43.6695C22.8126 44.1407 22.5381 44.7753 22.5205 45.4423C22.5033 46.0975 22.7364 46.7333 23.1682 47.2252L32.4536 56.5133C35.8503 59.8872 39.6187 61.8442 46.2015 61.8443H51.403C56.2313 61.8443 60.8631 59.9273 64.2772 56.5133C67.4782 53.3122 69.3624 49.0407 69.5854 44.5407L69.6082 43.639V35.8368C69.6082 35.1471 69.334 34.4857 68.8463 33.998C68.3586 33.5103 67.6972 33.2361 67.0075 33.2361C66.3178 33.2361 65.6564 33.5103 65.1687 33.998C64.681 34.4857 64.4068 35.1471 64.4068 35.8368C64.4068 37.2732 63.2424 38.4376 61.806 38.4376C60.3698 38.4374 59.2053 37.2731 59.2053 35.8368V33.2361C59.2053 32.5463 58.9311 31.885 58.4433 31.3973C57.9556 30.9096 57.2942 30.6353 56.6045 30.6353C55.9149 30.6354 55.2534 30.9096 54.7657 31.3973C54.2781 31.885 54.0038 32.5464 54.0038 33.2361C54.0038 34.6724 52.8394 35.8368 51.403 35.8368C49.9668 35.8367 48.8023 34.6723 48.8023 33.2361ZM43.6008 23.2877C44.4291 22.9945 45.3061 22.8331 46.2015 22.8331C48.2707 22.8331 50.2548 23.6558 51.718 25.1189C52.1221 25.523 52.472 25.9702 52.7745 26.4447C53.934 25.7907 55.2498 25.4339 56.6045 25.4338C58.6737 25.4338 60.6578 26.2565 62.1209 27.7196C62.5251 28.1238 62.875 28.571 63.1775 29.0454C64.337 28.3915 65.6528 28.0346 67.0075 28.0346C69.0767 28.0346 71.0607 28.8573 72.5239 30.3204C73.9871 31.7836 74.8097 33.7675 74.8097 35.8368V43.639C74.8097 49.8469 72.3445 55.8013 67.9548 60.1909C63.5652 64.5804 57.6108 67.0458 51.403 67.0458H46.2015C38.2205 67.0457 33.1447 64.5278 28.7913 60.2036L28.7836 60.1985L19.422 50.8368C19.3909 50.8057 19.36 50.7729 19.3305 50.7403C17.9883 49.2538 17.2688 47.3073 17.3216 45.3052C17.3744 43.303 18.1963 41.398 19.615 39.9843C21.0337 38.5708 22.9413 37.7569 24.9435 37.7112C25.9976 37.6871 27.0337 37.8805 27.9963 38.2623V17.6316C27.9963 15.5624 28.819 13.5783 30.2821 12.1152C31.7453 10.652 33.7294 9.82942 35.7985 9.82935C37.8678 9.82935 39.8518 10.652 41.315 12.1152C42.7782 13.5784 43.6008 15.5623 43.6008 17.6316V23.2877Z" fill="white"/>
<path d="M11.6984 0.780456C12.7626 -0.260111 14.4876 -0.260111 15.5518 0.780456C16.616 1.82102 16.616 3.50771 15.5518 4.54828L9.30333 10.658H19.9232C21.4282 10.658 22.6482 11.8509 22.6482 13.3225C22.6482 14.7941 21.4282 15.9871 19.9232 15.9871H9.30333L15.5518 22.0968C16.616 23.1373 16.616 24.824 15.5518 25.8646C14.4876 26.9051 12.7626 26.9051 11.6984 25.8646L0.798153 15.2064C-0.266051 14.1659 -0.266051 12.4792 0.798153 11.4386L11.6984 0.780456Z" fill="white"/>
<path d="M85.5555 0.780456C84.4913 -0.260111 82.7663 -0.260111 81.7021 0.780456C80.6379 1.82102 80.6379 3.50771 81.7021 4.54828L87.9506 10.658H52.018C50.513 10.658 49.293 11.8509 49.293 13.3225C49.293 14.7941 50.513 15.9871 52.018 15.9871H87.9506L81.7021 22.0968C80.6379 23.1373 80.6379 24.824 81.7021 25.8646C82.7663 26.9051 84.4913 26.9051 85.5555 25.8646L96.4558 15.2064C97.52 14.1659 97.52 12.4792 96.4558 11.4386L85.5555 0.780456Z" fill="white"/>
</svg>
