<svg width="201" height="44" viewBox="0 0 201 44" fill="none" xmlns="http://www.w3.org/2000/svg">
<rect width="201" height="44" rx="22" fill="white"/>
<path d="M68.2638 11.844C69.6825 11.844 70.7651 12.2267 71.5118 12.992C72.2771 13.7387 72.6598 14.7187 72.6598 15.932C72.6598 16.4733 72.6225 17.0147 72.5478 17.556C72.4918 18.0973 72.3611 18.6107 72.1558 19.096C71.9691 19.5813 71.7078 20.0293 71.3718 20.44C71.0358 20.832 70.6065 21.1493 70.0838 21.392V21.448C70.4571 21.6533 70.7371 21.9707 70.9238 22.4C71.1105 22.8293 71.2038 23.352 71.2038 23.968C71.2038 26.4133 70.6438 28.308 69.5238 29.652C68.4038 30.996 66.8545 31.668 64.8758 31.668C63.4758 31.668 62.4118 31.3227 61.6838 30.632C60.9745 29.9227 60.6198 28.98 60.6198 27.804C60.6198 27.4867 60.6478 27.1413 60.7038 26.768L64.6238 26.012C64.6051 26.1427 64.5865 26.2733 64.5678 26.404C64.5678 26.516 64.5678 26.6187 64.5678 26.712C64.5678 27.1413 64.6425 27.4493 64.7918 27.636C64.9598 27.804 65.2025 27.888 65.5198 27.888C65.8185 27.888 66.0798 27.7853 66.3038 27.58C66.5278 27.356 66.7051 27.076 66.8358 26.74C66.9851 26.3853 67.0878 25.9933 67.1438 25.564C67.2185 25.1347 67.2558 24.7053 67.2558 24.276C67.2558 23.7533 67.1438 23.4173 66.9198 23.268C66.6958 23.1 66.3971 23.016 66.0238 23.016H65.2398L65.8558 19.824H66.9758C67.5171 19.824 67.9465 19.5533 68.2638 19.012C68.5811 18.452 68.7398 17.752 68.7398 16.912C68.7398 16.6133 68.6745 16.324 68.5438 16.044C68.4131 15.764 68.1611 15.624 67.7878 15.624C67.3771 15.624 67.0225 15.792 66.7238 16.128C66.4438 16.464 66.2385 16.9213 66.1078 17.5L62.5238 16.688C62.8971 15.12 63.5598 13.9253 64.5118 13.104C65.4825 12.264 66.7331 11.844 68.2638 11.844ZM79.112 27.692H76.256L74.94 31.5H70.88L78.356 12.012H83.004L82.948 31.5H78.972L79.112 27.692ZM78.468 21L77.488 24.108H79.252L79.476 21L79.84 17.052H79.672L78.468 21ZM84.6342 31.5L88.4142 12.012H96.8702L96.1702 15.652H91.5222L90.8222 19.152H91.7462C93.2768 19.152 94.3968 19.488 95.1062 20.16C95.8155 20.832 96.1702 21.8307 96.1702 23.156C96.1702 24.2947 96.0115 25.3773 95.6942 26.404C95.3955 27.412 94.9662 28.2987 94.4062 29.064C93.8462 29.8107 93.1648 30.408 92.3622 30.856C91.5782 31.2853 90.6915 31.5 89.7022 31.5H84.6342ZM89.9262 27.86C90.5422 27.86 91.1022 27.5707 91.6062 26.992C92.1102 26.4133 92.3622 25.5173 92.3622 24.304C92.3622 23.968 92.3155 23.7067 92.2222 23.52C92.1288 23.3147 92.0075 23.1653 91.8582 23.072C91.7088 22.96 91.5315 22.8947 91.3262 22.876C91.1395 22.8387 90.9435 22.82 90.7382 22.82H90.1222L89.1422 27.86H89.9262ZM104.731 12.012C105.44 12.012 106.084 12.0867 106.663 12.236C107.241 12.3853 107.736 12.6373 108.147 12.992C108.557 13.328 108.875 13.7947 109.099 14.392C109.323 14.9707 109.435 15.6893 109.435 16.548C109.435 19.0867 108.828 21.028 107.615 22.372C106.401 23.6973 104.759 24.36 102.687 24.36H101.791L100.419 31.5H96.6107L100.391 12.012H104.731ZM103.499 15.652L102.519 20.692H103.163C103.405 20.692 103.676 20.6547 103.975 20.58C104.273 20.4867 104.553 20.328 104.815 20.104C105.076 19.8613 105.291 19.5253 105.459 19.096C105.627 18.6667 105.711 18.1067 105.711 17.416C105.711 16.7627 105.561 16.3053 105.263 16.044C104.983 15.7827 104.591 15.652 104.087 15.652H103.499ZM114.522 27.692H111.666L110.35 31.5H106.29L113.766 12.012H118.414L118.358 31.5H114.382L114.522 27.692ZM113.878 21L112.898 24.108H114.662L114.886 21L115.25 17.052H115.082L113.878 21ZM127.218 15.652L124.138 31.5H120.33L123.41 15.652H120.414L121.114 12.012H130.914L130.214 15.652H127.218ZM128.74 31.5L132.52 12.012H136.328L134.928 19.152H135.376C136.178 19.152 136.878 19.264 137.476 19.488C138.092 19.6933 138.605 19.992 139.016 20.384C139.426 20.7573 139.734 21.2053 139.94 21.728C140.164 22.232 140.276 22.7827 140.276 23.38C140.276 24.612 140.117 25.732 139.8 26.74C139.482 27.748 139.034 28.6067 138.456 29.316C137.877 30.0067 137.186 30.548 136.384 30.94C135.581 31.3133 134.694 31.5 133.724 31.5H128.74ZM133.948 27.86C134.246 27.86 134.545 27.7853 134.844 27.636C135.161 27.468 135.432 27.244 135.656 26.964C135.898 26.6653 136.094 26.3013 136.244 25.872C136.393 25.424 136.468 24.92 136.468 24.36C136.468 23.688 136.3 23.268 135.964 23.1C135.646 22.9133 135.282 22.82 134.872 22.82H134.228L133.248 27.86H133.948Z" fill="#141419"/>
</svg>
