<svg width="138" height="33" viewBox="0 0 138 33" fill="none" xmlns="http://www.w3.org/2000/svg">
<path fill-rule="evenodd" clip-rule="evenodd" d="M16.2527 31.5114C12.2789 31.4564 8.55211 29.8677 5.75599 27.0377C2.95421 24.202 1.41211 20.4428 1.41211 16.4547C1.41211 8.16099 8.16093 1.41217 16.4547 1.41217H121.747C125.72 1.46725 129.448 3.05595 132.244 5.88456C135.046 8.71881 136.588 12.4724 136.588 16.4547C136.588 20.4371 135.047 24.1963 132.248 27.0334C129.453 29.8663 125.724 31.4564 121.747 31.5114H16.2527Z" fill="#141419"/>
<path fill-rule="evenodd" clip-rule="evenodd" d="M121.756 0C130.743 0.118623 138 7.44079 138 16.4548C138 25.4687 130.757 32.805 121.756 32.9236H16.2443C7.2558 32.805 0 25.4829 0 16.4548C0 7.42667 7.37583 0 16.4548 0H121.756ZM16.4548 3.29039C9.18484 3.29039 3.29039 9.18484 3.29039 16.4548C3.29039 23.7247 9.18484 29.6191 16.4548 29.6191H121.544C128.814 29.6191 134.708 23.7247 134.708 16.4548C134.708 9.18484 128.814 3.29039 121.544 3.29039H16.4548Z" fill="#FF6A13"/>
<path d="M121.492 26.9233C115.728 26.9233 111.037 22.2306 111.037 16.4689C111.037 10.7072 115.73 6.0145 121.492 6.0145C127.253 6.0145 131.946 10.7072 131.946 16.4689C131.946 22.2306 127.253 26.9233 121.492 26.9233Z" fill="#FF6A13"/>
<path d="M62.8087 8.23444C63.2973 8.23444 63.615 8.63126 63.5218 9.10716L61.4219 20.9723H66.88C67.3686 20.9723 67.7245 21.3692 67.6327 21.8451L67.2895 23.8165C67.1963 24.3065 66.7345 24.6892 66.2459 24.6892H57.6937C57.2051 24.6892 56.8874 24.2924 56.9806 23.8165L59.5705 9.10716C59.6637 8.61714 60.1255 8.23444 60.6141 8.23444H62.8087Z" fill="white"/>
<path d="M106.007 8.23444C106.496 8.23444 106.814 8.61855 106.72 9.09446L106.363 11.0659C106.27 11.5559 105.808 11.9386 105.32 11.9386H98.8574L98.3702 14.6895H104.368C104.856 14.6895 105.174 15.0863 105.081 15.5623L104.763 17.3218C104.67 17.8119 104.208 18.1946 103.72 18.1946H97.7502L97.263 20.9455H103.773C104.262 20.9455 104.58 21.355 104.486 21.8324L104.143 23.8165C104.006 24.5211 103.324 24.6892 102.848 24.6892H93.5165C93.0279 24.6892 92.7101 24.2924 92.8033 23.8165L95.4074 9.10716C95.5006 8.61714 95.9624 8.23444 96.451 8.23444H106.007Z" fill="white"/>
<path d="M36.4361 24.6892H34.2416C33.753 24.6892 33.4352 24.2924 33.5284 23.8165L36.1325 9.10716C36.2257 8.61714 36.6875 8.23444 37.1761 8.23444H39.3706C39.8593 8.23444 40.177 8.63126 40.0838 9.10716L37.4797 23.8165C37.3865 24.2924 36.912 24.6892 36.4361 24.6892Z" fill="white"/>
<path d="M52.5902 9.09446L51.0438 17.8641L47.9512 9.04079C47.7789 8.53806 47.3171 8.23444 46.748 8.23444H44.158C43.6694 8.23444 43.2062 8.63126 43.1144 9.10717L40.5104 23.8165C40.4172 24.3065 40.7349 24.6892 41.2235 24.6892H43.4181C43.9067 24.6892 44.3699 24.2924 44.4617 23.8165L46.008 15.0595L48.9962 23.8828C49.1685 24.3856 49.6302 24.6892 50.1994 24.6892H52.8952C53.3838 24.6892 53.847 24.2924 53.9388 23.8165L56.5415 9.10717C56.6347 8.61714 56.3169 8.23444 55.8283 8.23444H53.6211C53.1452 8.22173 52.682 8.60443 52.5902 9.09446Z" fill="white"/>
<path d="M25.476 18.9094V8.92247C25.476 8.53836 25.1582 8.23474 24.7883 8.23474H22.0783C21.7351 8.23474 21.4174 8.43386 21.2719 8.75019L16.6993 18.8699V8.92247C16.6993 8.53836 16.3957 8.23474 16.0115 8.23474H13.447C13.0643 8.23474 12.7593 8.53836 12.7593 8.92247V24.0018C12.7593 24.3859 13.0629 24.6895 13.447 24.6895H17.0156C17.3588 24.6895 17.6765 24.4777 17.822 24.1599L22.1969 14.1998V24.0018C22.1969 24.3859 22.5005 24.6895 22.8846 24.6895H26.2414C26.5846 24.6895 26.8896 24.4904 27.035 24.1868L34.0141 9.21338C34.2259 8.75019 33.8954 8.23474 33.3927 8.23474H30.8818C30.5387 8.23474 30.2209 8.43386 30.0755 8.75019L25.476 18.9094Z" fill="white"/>
<path d="M72.2716 24.6892H70.077C69.5884 24.6892 69.2707 24.2924 69.3639 23.8165L71.9679 9.10716C72.0612 8.61714 72.5229 8.23444 73.0116 8.23444H75.2061C75.6947 8.23444 76.0124 8.63126 75.9192 9.10716L73.3152 23.8165C73.222 24.2924 72.7602 24.6892 72.2716 24.6892Z" fill="white"/>
<path d="M88.4256 9.09446L86.8793 17.8641L83.7866 9.04079C83.6143 8.53806 83.1525 8.23444 82.5834 8.23444H79.9935C79.5049 8.23444 79.0417 8.63126 78.9499 9.10717L76.3458 23.8165C76.2526 24.3065 76.5703 24.6892 77.059 24.6892H79.2535C79.7421 24.6892 80.2053 24.2924 80.2971 23.8165L81.8434 15.0595L84.8316 23.8828C85.0039 24.3856 85.4657 24.6892 86.0348 24.6892H88.7307C89.2193 24.6892 89.6825 24.2924 89.7743 23.8165L92.3769 9.10717C92.4701 8.61714 92.1524 8.23444 91.6638 8.23444H89.4565C88.9806 8.22173 88.5174 8.60443 88.4256 9.09446Z" fill="white"/>
</svg>
