<svg width="138" height="35" viewBox="0 0 138 35" fill="none" xmlns="http://www.w3.org/2000/svg">
<path d="M12.7001 8.19999C11.8334 8.23332 11.0501 8.51665 10.3501 9.04999C9.6501 9.54999 9.2001 10.3 9.0001 11.3L6.8501 22.3C6.6501 23.3 6.81676 24.05 7.3501 24.55C7.88343 25.05 8.5501 25.3167 9.3501 25.35L12.7001 8.19999ZM21.9501 11.3C22.1501 10.2 21.9501 9.41665 21.3501 8.94999C20.7834 8.48332 20.1501 8.23332 19.4501 8.19999L16.1001 25.35C17.0334 25.4167 17.8334 25.1667 18.5001 24.6C19.2001 24.0333 19.6334 23.2667 19.8001 22.3L21.9501 11.3ZM26.4501 22.15C25.8834 25.1167 24.6501 27.4667 22.7501 29.2C20.8501 30.9333 18.2168 31.8333 14.8501 31.9L14.3001 34.8H7.5501L8.1501 31.7C6.9501 31.6667 5.8001 31.4 4.7001 30.9C3.63343 30.4 2.73343 29.7 2.0001 28.8C1.26676 27.9 0.750098 26.8167 0.450098 25.55C0.150098 24.25 0.166764 22.7667 0.500098 21.1L2.4001 11.2C2.96676 8.19999 4.26676 5.86665 6.3001 4.19999C8.36677 2.49999 10.9334 1.63332 14.0001 1.59999L14.3001 -1.41859e-05H21.0501L20.7501 1.59999C22.1501 1.59999 23.3834 1.83332 24.4501 2.29999C25.5501 2.76665 26.4334 3.43332 27.1001 4.29999C27.8001 5.13332 28.2668 6.14999 28.5001 7.34999C28.7668 8.51665 28.7501 9.84999 28.4501 11.35L26.4501 22.15ZM43.3142 -1.41859e-05C44.5808 -1.41859e-05 45.7308 0.133319 46.7642 0.399987C47.7975 0.666654 48.6808 1.11665 49.4142 1.74999C50.1475 2.34999 50.7142 3.18332 51.1142 4.24999C51.5142 5.28332 51.7142 6.56665 51.7142 8.09999C51.7142 12.6333 50.6308 16.1 48.4642 18.5C46.2975 20.8667 43.3642 22.05 39.6642 22.05H38.0642L35.6142 34.8H28.8142L35.5642 -1.41859e-05H43.3142ZM41.1142 6.49999L39.3642 15.5H40.5142C40.9475 15.5 41.4308 15.4333 41.9642 15.3C42.4975 15.1333 42.9975 14.85 43.4642 14.45C43.9308 14.0167 44.3142 13.4167 44.6142 12.65C44.9142 11.8833 45.0642 10.8833 45.0642 9.64999C45.0642 8.48332 44.7975 7.66665 44.2642 7.19999C43.7642 6.73332 43.0642 6.49999 42.1642 6.49999H41.1142ZM65.5509 16.4L56.5509 34.8H49.9509L56.6509 -1.41859e-05H63.3509L59.7509 18.55H59.8509L68.8009 -1.41859e-05H75.5509L68.8009 34.8H62.0509L65.6509 16.4H65.5509ZM74.2731 34.8L81.0231 -1.41859e-05H96.1231L94.8731 6.49999H86.5731L85.3231 12.75H86.9731C89.7065 12.75 91.7065 13.35 92.9731 14.55C94.2398 15.75 94.8731 17.5333 94.8731 19.9C94.8731 21.9333 94.5898 23.8667 94.0231 25.7C93.4898 27.5 92.7231 29.0833 91.7231 30.45C90.7231 31.7833 89.5065 32.85 88.0731 33.65C86.6731 34.4167 85.0898 34.8 83.3231 34.8H74.2731ZM83.7231 28.3C84.8231 28.3 85.8231 27.7833 86.7231 26.75C87.6231 25.7167 88.0731 24.1167 88.0731 21.95C88.0731 21.35 87.9898 20.8833 87.8231 20.55C87.6565 20.1833 87.4398 19.9167 87.1731 19.75C86.9065 19.55 86.5898 19.4333 86.2231 19.4C85.8898 19.3333 85.5398 19.3 85.1731 19.3H84.0731L82.3231 28.3H83.7231ZM95.6599 34.8L102.41 -1.41859e-05H118.36L117.11 6.49999H107.96L106.51 13.8H114.51L113.21 20.45H105.21L103.76 28.3H112.91L111.61 34.8H95.6599ZM130.638 6.49999L125.138 34.8H118.338L123.838 6.49999H118.488L119.738 -1.41859e-05H137.238L135.988 6.49999H130.638Z" fill="white"/>
</svg>
