<svg width="204" height="72" viewBox="0 0 204 72" fill="none" xmlns="http://www.w3.org/2000/svg">
<path d="M34.6428 34.744C35.6528 35.2826 36.4272 35.956 36.9658 36.764C37.5045 37.572 37.9085 38.4473 38.1778 39.39C38.4472 40.3326 38.5818 41.3426 38.5818 42.42C38.5818 43.43 38.4808 44.44 38.2788 45.45L37.0668 52.419C36.5282 55.3143 35.7538 57.9403 34.7438 60.297C33.7338 62.6536 32.4208 64.6736 30.8048 66.357C29.2562 67.973 27.3372 69.2523 25.0478 70.195C22.7585 71.0703 20.0652 71.508 16.9678 71.508C11.0425 71.508 6.73318 69.892 4.03984 66.66C1.34651 63.3606 0.774178 58.4116 2.32284 51.813L16.2608 50.197C15.7222 52.015 15.4528 53.4626 15.4528 54.54C15.5202 55.6173 15.7222 56.459 16.0588 57.065C16.3955 57.671 16.7995 58.075 17.2708 58.277C17.8095 58.4116 18.2808 58.479 18.6848 58.479C19.4255 58.479 20.1998 58.2096 21.0078 57.671C21.8158 57.065 22.3882 55.853 22.7248 54.035L24.3408 45.652C24.7448 43.6993 24.4755 42.319 23.5328 41.511C22.6575 40.703 21.5465 40.299 20.1998 40.299H17.1698L19.3918 28.785H23.2298C24.5765 28.785 25.7885 28.4146 26.8658 27.674C28.0105 26.9333 28.7512 25.6876 29.0878 23.937L30.4008 17.271C30.6028 16.3283 30.5018 15.4193 30.0978 14.544C29.7612 13.6013 28.9195 13.13 27.5728 13.13C27.1015 13.13 26.5965 13.231 26.0578 13.433C25.5192 13.5676 24.9805 13.938 24.4418 14.544C23.9705 15.0826 23.4992 15.8906 23.0278 16.968C22.6238 18.0453 22.3208 19.493 22.1188 21.311L9.08984 19.695C10.0325 13.1636 12.2545 8.24831 15.7558 4.94897C19.3245 1.64964 23.6002 -2.46763e-05 28.5828 -2.46763e-05C31.8822 -2.46763e-05 34.5755 0.538641 36.6628 1.61597C38.7502 2.62598 40.3662 3.93898 41.5108 5.55498C42.7228 7.17098 43.4635 8.98897 43.7328 11.009C44.0695 12.9616 44.1032 14.9143 43.8338 16.867L43.3288 20.402C43.0595 21.6813 42.7228 22.9943 42.3188 24.341C41.9148 25.6876 41.3762 27.0006 40.7028 28.28C40.0968 29.492 39.2888 30.6366 38.2788 31.714C37.3362 32.724 36.1578 33.5656 34.7438 34.239L34.6428 34.744ZM73.0923 -2.46763e-05C75.7183 -2.46763e-05 78.0413 0.504975 80.0613 1.51497C82.0813 2.45764 83.731 3.80431 85.0103 5.55498C86.2896 7.23831 87.1313 9.25831 87.5353 11.615C87.9393 13.9043 87.872 16.4293 87.3333 19.19L79.7583 56.055C78.8156 61.105 76.8293 64.943 73.7993 67.569C70.8366 70.195 67.0323 71.508 62.3863 71.508C59.8276 71.508 57.5383 71.0703 55.5183 70.195C53.4983 69.3196 51.8486 68.074 50.5693 66.458C49.2899 64.7746 48.4146 62.7883 47.9433 60.499C47.4719 58.1423 47.5056 55.55 48.0443 52.722L55.0133 15.756C55.9559 10.706 58.0433 6.83431 61.2753 4.14098C64.5073 1.38031 68.4463 -2.46763e-05 73.0923 -2.46763e-05ZM71.6783 13.433C70.6009 13.433 69.8266 13.736 69.3553 14.342C68.8839 14.8806 68.5809 15.5876 68.4463 16.463L60.7703 55.045C60.5683 55.9876 60.7366 56.7283 61.2753 57.267C61.8813 57.8056 62.5546 58.075 63.2953 58.075C64.1706 58.075 64.9113 57.8393 65.5173 57.368C66.1233 56.8293 66.4936 56.156 66.6283 55.348C67.9076 48.8166 68.985 43.329 69.8603 38.885C70.7356 34.3736 71.4426 30.704 71.9813 27.876C72.5873 24.9806 73.0586 22.7586 73.3953 21.21C73.732 19.6613 73.9676 18.5503 74.1023 17.877C74.2369 17.1363 74.3043 16.7323 74.3043 16.665C74.3716 16.5303 74.4053 16.4293 74.4053 16.362C74.54 15.2846 74.2706 14.544 73.5973 14.14C72.9913 13.6686 72.3516 13.433 71.6783 13.433ZM116.491 -2.46763e-05C119.117 -2.46763e-05 121.44 0.504975 123.46 1.51497C125.48 2.45764 127.129 3.80431 128.409 5.55498C129.688 7.23831 130.53 9.25831 130.934 11.615C131.338 13.9043 131.27 16.4293 130.732 19.19L123.157 56.055C122.214 61.105 120.228 64.943 117.198 67.569C114.235 70.195 110.431 71.508 105.785 71.508C103.226 71.508 100.937 71.0703 98.9167 70.195C96.8967 69.3196 95.2471 68.074 93.9677 66.458C92.6884 64.7746 91.8131 62.7883 91.3417 60.499C90.8704 58.1423 90.9041 55.55 91.4427 52.722L98.4117 15.756C99.3544 10.706 101.442 6.83431 104.674 4.14098C107.906 1.38031 111.845 -2.46763e-05 116.491 -2.46763e-05ZM115.077 13.433C113.999 13.433 113.225 13.736 112.754 14.342C112.282 14.8806 111.979 15.5876 111.845 16.463L104.169 55.045C103.967 55.9876 104.135 56.7283 104.674 57.267C105.28 57.8056 105.953 58.075 106.694 58.075C107.569 58.075 108.31 57.8393 108.916 57.368C109.522 56.8293 109.892 56.156 110.027 55.348C111.306 48.8166 112.383 43.329 113.259 38.885C114.134 34.3736 114.841 30.704 115.38 27.876C115.986 24.9806 116.457 22.7586 116.794 21.21C117.13 19.6613 117.366 18.5503 117.501 17.877C117.635 17.1363 117.703 16.7323 117.703 16.665C117.77 16.5303 117.804 16.4293 117.804 16.362C117.938 15.2846 117.669 14.544 116.996 14.14C116.39 13.6686 115.75 13.433 115.077 13.433ZM159.889 -2.46763e-05C162.515 -2.46763e-05 164.838 0.504975 166.858 1.51497C168.878 2.45764 170.528 3.80431 171.807 5.55498C173.086 7.23831 173.928 9.25831 174.332 11.615C174.736 13.9043 174.669 16.4293 174.13 19.19L166.555 56.055C165.612 61.105 163.626 64.943 160.596 67.569C157.633 70.195 153.829 71.508 149.183 71.508C146.624 71.508 144.335 71.0703 142.315 70.195C140.295 69.3196 138.645 68.074 137.366 66.458C136.087 64.7746 135.211 62.7883 134.74 60.499C134.269 58.1423 134.302 55.55 134.841 52.722L141.81 15.756C142.753 10.706 144.84 6.83431 148.072 4.14098C151.304 1.38031 155.243 -2.46763e-05 159.889 -2.46763e-05ZM158.475 13.433C157.398 13.433 156.623 13.736 156.152 14.342C155.681 14.8806 155.378 15.5876 155.243 16.463L147.567 55.045C147.365 55.9876 147.533 56.7283 148.072 57.267C148.678 57.8056 149.351 58.075 150.092 58.075C150.967 58.075 151.708 57.8393 152.314 57.368C152.92 56.8293 153.29 56.156 153.425 55.348C154.704 48.8166 155.782 43.329 156.657 38.885C157.532 34.3736 158.239 30.704 158.778 27.876C159.384 24.9806 159.855 22.7586 160.192 21.21C160.529 19.6613 160.764 18.5503 160.899 17.877C161.034 17.1363 161.101 16.7323 161.101 16.665C161.168 16.5303 161.202 16.4293 161.202 16.362C161.337 15.2846 161.067 14.544 160.394 14.14C159.788 13.6686 159.148 13.433 158.475 13.433ZM189.815 55.502H191.535C193.322 55.502 194.708 55.0086 195.695 54.022C196.708 53.0353 197.215 51.8486 197.215 50.462C197.215 49.502 196.868 48.742 196.175 48.182C195.508 47.5953 194.508 47.302 193.175 47.302H191.455L189.815 55.502ZM186.655 42.902H194.135C195.975 42.902 197.535 43.142 198.815 43.622C200.095 44.102 201.028 44.742 201.615 45.542C202.202 46.3153 202.602 47.0753 202.815 47.822C203.055 48.542 203.175 49.302 203.175 50.102C203.175 51.2753 202.935 52.4353 202.455 53.582C202.002 54.702 201.322 55.742 200.415 56.702C199.535 57.662 198.335 58.4353 196.815 59.022C195.322 59.6086 193.628 59.902 191.735 59.902H188.895L188.255 63.222H194.295L193.535 66.822H187.495L186.695 70.902H181.015L181.815 66.822H178.055L178.815 63.222H182.575L183.215 59.902H179.415L180.335 55.502H184.135L186.655 42.902Z" fill="#FF6A13"/>
</svg>
